<mxfile host="Electron" agent="Mozilla/5.0 (Macintosh; Intel Mac OS X 10_15_7) AppleWebKit/537.36 (KHTML, like Gecko) draw.io/26.2.15 Chrome/134.0.6998.205 Electron/35.2.1 Safari/537.36" version="26.2.15">
  <diagram name="Page-1" id="zIRQ6QxTVd8sU_vNG8HT">
    <mxGraphModel dx="996" dy="647" grid="1" gridSize="10" guides="1" tooltips="1" connect="1" arrows="1" fold="1" page="1" pageScale="1" pageWidth="850" pageHeight="1100" math="0" shadow="0">
      <root>
        <mxCell id="0" />
        <mxCell id="1" parent="0" />
        <mxCell id="GAhhmPrOorjGGNaB6TWW-12" value="API" style="shape=umlLifeline;perimeter=lifelinePerimeter;whiteSpace=wrap;html=1;container=1;dropTarget=0;collapsible=0;recursiveResize=0;outlineConnect=0;portConstraint=eastwest;newEdgeStyle={&quot;curved&quot;:0,&quot;rounded&quot;:0};" parent="1" vertex="1">
          <mxGeometry x="970" y="120" width="100" height="560" as="geometry" />
        </mxCell>
        <mxCell id="GAhhmPrOorjGGNaB6TWW-13" value="" style="html=1;points=[[0,0,0,0,5],[0,1,0,0,-5],[1,0,0,0,5],[1,1,0,0,-5]];perimeter=orthogonalPerimeter;outlineConnect=0;targetShapes=umlLifeline;portConstraint=eastwest;newEdgeStyle={&quot;curved&quot;:0,&quot;rounded&quot;:0};" parent="GAhhmPrOorjGGNaB6TWW-12" vertex="1">
          <mxGeometry x="45" y="230" width="10" height="60" as="geometry" />
        </mxCell>
        <mxCell id="n5BqmsEo6Z5Yi_dXytz4-6" value="Share DB" style="shape=umlLifeline;perimeter=lifelinePerimeter;whiteSpace=wrap;html=1;container=1;dropTarget=0;collapsible=0;recursiveResize=0;outlineConnect=0;portConstraint=eastwest;newEdgeStyle={&quot;curved&quot;:0,&quot;rounded&quot;:0};" parent="1" vertex="1">
          <mxGeometry x="820" y="120" width="100" height="560" as="geometry" />
        </mxCell>
        <mxCell id="n5BqmsEo6Z5Yi_dXytz4-1" value="User Offer Cache" style="shape=umlLifeline;perimeter=lifelinePerimeter;whiteSpace=wrap;html=1;container=1;dropTarget=0;collapsible=0;recursiveResize=0;outlineConnect=0;portConstraint=eastwest;newEdgeStyle={&quot;curved&quot;:0,&quot;rounded&quot;:0};" parent="1" vertex="1">
          <mxGeometry x="670" y="120" width="100" height="560" as="geometry" />
        </mxCell>
        <mxCell id="n5BqmsEo6Z5Yi_dXytz4-2" value="" style="html=1;points=[[0,0,0,0,5],[0,1,0,0,-5],[1,0,0,0,5],[1,1,0,0,-5]];perimeter=orthogonalPerimeter;outlineConnect=0;targetShapes=umlLifeline;portConstraint=eastwest;newEdgeStyle={&quot;curved&quot;:0,&quot;rounded&quot;:0};" parent="n5BqmsEo6Z5Yi_dXytz4-1" vertex="1">
          <mxGeometry x="45" y="360" width="10" height="40" as="geometry" />
        </mxCell>
        <mxCell id="GAhhmPrOorjGGNaB6TWW-1" value="Client" style="shape=umlLifeline;perimeter=lifelinePerimeter;whiteSpace=wrap;html=1;container=1;dropTarget=0;collapsible=0;recursiveResize=0;outlineConnect=0;portConstraint=eastwest;newEdgeStyle={&quot;curved&quot;:0,&quot;rounded&quot;:0};" parent="1" vertex="1">
          <mxGeometry x="170" y="120" width="105" height="560" as="geometry" />
        </mxCell>
        <mxCell id="GAhhmPrOorjGGNaB6TWW-2" value="" style="html=1;points=[[0,0,0,0,5],[0,1,0,0,-5],[1,0,0,0,5],[1,1,0,0,-5]];perimeter=orthogonalPerimeter;outlineConnect=0;targetShapes=umlLifeline;portConstraint=eastwest;newEdgeStyle={&quot;curved&quot;:0,&quot;rounded&quot;:0};" parent="GAhhmPrOorjGGNaB6TWW-1" vertex="1">
          <mxGeometry x="47.5" y="60" width="10" height="480" as="geometry" />
        </mxCell>
        <mxCell id="GAhhmPrOorjGGNaB6TWW-62" value="Replace&amp;nbsp;&lt;div&gt;Preliminary Offers&lt;div&gt;with valid Offers&amp;nbsp;&lt;/div&gt;&lt;div&gt;based on hash&lt;/div&gt;&lt;/div&gt;" style="html=1;align=left;spacingLeft=2;endArrow=block;rounded=0;edgeStyle=orthogonalEdgeStyle;curved=0;rounded=0;" parent="GAhhmPrOorjGGNaB6TWW-1" edge="1">
          <mxGeometry x="-0.154" y="-100" relative="1" as="geometry">
            <mxPoint x="47.5" y="340" as="sourcePoint" />
            <Array as="points">
              <mxPoint x="30" y="340" />
              <mxPoint x="30" y="370" />
            </Array>
            <mxPoint x="47.5" y="370" as="targetPoint" />
            <mxPoint as="offset" />
          </mxGeometry>
        </mxCell>
        <mxCell id="GAhhmPrOorjGGNaB6TWW-64" value="Mark non&amp;nbsp;&lt;span style=&quot;background-color: light-dark(#ffffff, var(--ge-dark-color, #121212)); color: light-dark(rgb(0, 0, 0), rgb(255, 255, 255));&quot;&gt;valid&amp;nbsp;&lt;/span&gt;&lt;div&gt;&lt;span style=&quot;background-color: light-dark(#ffffff, var(--ge-dark-color, #121212)); color: light-dark(rgb(0, 0, 0), rgb(255, 255, 255));&quot;&gt;Offers&amp;nbsp;&lt;/span&gt;&lt;span style=&quot;background-color: light-dark(#ffffff, var(--ge-dark-color, #121212)); color: light-dark(rgb(0, 0, 0), rgb(255, 255, 255));&quot;&gt;as &quot;maybe&amp;nbsp;&lt;/span&gt;&lt;div&gt;not available&quot;&lt;/div&gt;&lt;/div&gt;" style="html=1;align=left;spacingLeft=2;endArrow=block;rounded=0;edgeStyle=orthogonalEdgeStyle;curved=0;rounded=0;" parent="GAhhmPrOorjGGNaB6TWW-1" edge="1">
          <mxGeometry x="0.154" y="-100" relative="1" as="geometry">
            <mxPoint x="47.5" y="390" as="sourcePoint" />
            <Array as="points">
              <mxPoint x="30" y="390" />
              <mxPoint x="30" y="420" />
            </Array>
            <mxPoint x="47.5" y="420" as="targetPoint" />
            <mxPoint as="offset" />
          </mxGeometry>
        </mxCell>
        <mxCell id="HBrlnAhndQsZXElvMRuf-1" value="Filter Offers&amp;nbsp;&lt;div&gt;Client side&lt;/div&gt;" style="html=1;align=left;spacingLeft=2;endArrow=block;rounded=0;edgeStyle=orthogonalEdgeStyle;curved=0;rounded=0;" edge="1" parent="GAhhmPrOorjGGNaB6TWW-1" source="GAhhmPrOorjGGNaB6TWW-2" target="GAhhmPrOorjGGNaB6TWW-2">
          <mxGeometry x="0.1555" y="-70" relative="1" as="geometry">
            <mxPoint x="47.5" y="440" as="sourcePoint" />
            <Array as="points">
              <mxPoint x="30" y="440" />
              <mxPoint x="30" y="470" />
            </Array>
            <mxPoint x="47.5" y="470" as="targetPoint" />
            <mxPoint as="offset" />
          </mxGeometry>
        </mxCell>
        <mxCell id="GAhhmPrOorjGGNaB6TWW-5" value="Server" style="shape=umlLifeline;perimeter=lifelinePerimeter;whiteSpace=wrap;html=1;container=1;dropTarget=0;collapsible=0;recursiveResize=0;outlineConnect=0;portConstraint=eastwest;newEdgeStyle={&quot;curved&quot;:0,&quot;rounded&quot;:0};" parent="1" vertex="1">
          <mxGeometry x="340" y="120" width="105" height="560" as="geometry" />
        </mxCell>
        <mxCell id="GAhhmPrOorjGGNaB6TWW-6" value="" style="html=1;points=[[0,0,0,0,5],[0,1,0,0,-5],[1,0,0,0,5],[1,1,0,0,-5]];perimeter=orthogonalPerimeter;outlineConnect=0;targetShapes=umlLifeline;portConstraint=eastwest;newEdgeStyle={&quot;curved&quot;:0,&quot;rounded&quot;:0};" parent="GAhhmPrOorjGGNaB6TWW-5" vertex="1">
          <mxGeometry x="47.5" y="60" width="10" height="340" as="geometry" />
        </mxCell>
        <mxCell id="GAhhmPrOorjGGNaB6TWW-59" value="Check freshness" style="html=1;align=left;spacingLeft=2;endArrow=block;rounded=0;edgeStyle=orthogonalEdgeStyle;curved=0;rounded=0;" parent="GAhhmPrOorjGGNaB6TWW-5" source="GAhhmPrOorjGGNaB6TWW-6" target="GAhhmPrOorjGGNaB6TWW-6" edge="1">
          <mxGeometry x="0.0118" relative="1" as="geometry">
            <mxPoint x="58" y="140" as="sourcePoint" />
            <Array as="points">
              <mxPoint x="86" y="140" />
              <mxPoint x="86" y="170" />
            </Array>
            <mxPoint x="58" y="170" as="targetPoint" />
            <mxPoint as="offset" />
          </mxGeometry>
        </mxCell>
        <mxCell id="GAhhmPrOorjGGNaB6TWW-10" value="Address Offer Cache" style="shape=umlLifeline;perimeter=lifelinePerimeter;whiteSpace=wrap;html=1;container=1;dropTarget=0;collapsible=0;recursiveResize=0;outlineConnect=0;portConstraint=eastwest;newEdgeStyle={&quot;curved&quot;:0,&quot;rounded&quot;:0};" parent="1" vertex="1">
          <mxGeometry x="510" y="120" width="100" height="560" as="geometry" />
        </mxCell>
        <mxCell id="GAhhmPrOorjGGNaB6TWW-11" value="" style="html=1;points=[[0,0,0,0,5],[0,1,0,0,-5],[1,0,0,0,5],[1,1,0,0,-5]];perimeter=orthogonalPerimeter;outlineConnect=0;targetShapes=umlLifeline;portConstraint=eastwest;newEdgeStyle={&quot;curved&quot;:0,&quot;rounded&quot;:0};" parent="GAhhmPrOorjGGNaB6TWW-10" vertex="1">
          <mxGeometry x="45" y="80" width="10" height="290" as="geometry" />
        </mxCell>
        <mxCell id="GAhhmPrOorjGGNaB6TWW-14" value="" style="shape=umlLifeline;perimeter=lifelinePerimeter;whiteSpace=wrap;html=1;container=1;dropTarget=0;collapsible=0;recursiveResize=0;outlineConnect=0;portConstraint=eastwest;newEdgeStyle={&quot;curved&quot;:0,&quot;rounded&quot;:0};participant=umlActor;" parent="1" vertex="1">
          <mxGeometry x="80" y="120" width="20" height="560" as="geometry" />
        </mxCell>
        <mxCell id="GAhhmPrOorjGGNaB6TWW-15" value="" style="html=1;points=[[0,0,0,0,5],[0,1,0,0,-5],[1,0,0,0,5],[1,1,0,0,-5]];perimeter=orthogonalPerimeter;outlineConnect=0;targetShapes=umlLifeline;portConstraint=eastwest;newEdgeStyle={&quot;curved&quot;:0,&quot;rounded&quot;:0};" parent="GAhhmPrOorjGGNaB6TWW-14" vertex="1">
          <mxGeometry x="5" y="60" width="10" height="480" as="geometry" />
        </mxCell>
        <mxCell id="GAhhmPrOorjGGNaB6TWW-16" value="Query Offers" style="html=1;verticalAlign=bottom;endArrow=block;curved=0;rounded=0;" parent="1" source="GAhhmPrOorjGGNaB6TWW-15" target="GAhhmPrOorjGGNaB6TWW-2" edge="1">
          <mxGeometry width="80" relative="1" as="geometry">
            <mxPoint x="95" y="160" as="sourcePoint" />
            <mxPoint x="215" y="160" as="targetPoint" />
            <Array as="points">
              <mxPoint x="160" y="200" />
            </Array>
          </mxGeometry>
        </mxCell>
        <mxCell id="GAhhmPrOorjGGNaB6TWW-17" value="Fetch Offers&lt;div&gt;(&lt;span style=&quot;background-color: light-dark(#ffffff, var(--ge-dark-color, #121212)); color: light-dark(rgb(0, 0, 0), rgb(255, 255, 255));&quot;&gt;address, sessionId)&lt;/span&gt;&lt;/div&gt;" style="html=1;verticalAlign=bottom;endArrow=block;curved=0;rounded=0;" parent="1" source="GAhhmPrOorjGGNaB6TWW-2" target="GAhhmPrOorjGGNaB6TWW-6" edge="1">
          <mxGeometry x="-0.0047" width="80" relative="1" as="geometry">
            <mxPoint x="270" y="150" as="sourcePoint" />
            <mxPoint x="350" y="150" as="targetPoint" />
            <Array as="points">
              <mxPoint x="300" y="200" />
            </Array>
            <mxPoint as="offset" />
          </mxGeometry>
        </mxCell>
        <mxCell id="GAhhmPrOorjGGNaB6TWW-53" value="Get Latest&amp;nbsp;&lt;div&gt;Query&#39;s Offers (address)&lt;/div&gt;" style="html=1;verticalAlign=bottom;endArrow=block;curved=0;rounded=0;" parent="1" source="GAhhmPrOorjGGNaB6TWW-6" target="GAhhmPrOorjGGNaB6TWW-11" edge="1">
          <mxGeometry x="-0.0023" width="80" relative="1" as="geometry">
            <mxPoint x="397.5" y="560" as="sourcePoint" />
            <mxPoint x="555" y="560" as="targetPoint" />
            <Array as="points">
              <mxPoint x="460" y="210" />
            </Array>
            <mxPoint as="offset" />
          </mxGeometry>
        </mxCell>
        <mxCell id="GAhhmPrOorjGGNaB6TWW-54" value="Stored Offers" style="html=1;verticalAlign=bottom;endArrow=open;dashed=1;endSize=8;curved=0;rounded=0;" parent="1" source="GAhhmPrOorjGGNaB6TWW-11" target="GAhhmPrOorjGGNaB6TWW-6" edge="1">
          <mxGeometry relative="1" as="geometry">
            <mxPoint x="555" y="590" as="sourcePoint" />
            <mxPoint x="397.5" y="590" as="targetPoint" />
            <Array as="points">
              <mxPoint x="490" y="240" />
            </Array>
          </mxGeometry>
        </mxCell>
        <mxCell id="GAhhmPrOorjGGNaB6TWW-55" value="[fresh] Offers" style="html=1;verticalAlign=bottom;endArrow=open;dashed=1;endSize=8;curved=0;rounded=0;" parent="1" source="GAhhmPrOorjGGNaB6TWW-6" target="GAhhmPrOorjGGNaB6TWW-2" edge="1">
          <mxGeometry relative="1" as="geometry">
            <mxPoint x="387.5" y="610" as="sourcePoint" />
            <mxPoint x="227.5" y="610" as="targetPoint" />
            <Array as="points">
              <mxPoint x="320" y="320" />
            </Array>
            <mxPoint as="offset" />
          </mxGeometry>
        </mxCell>
        <mxCell id="n5BqmsEo6Z5Yi_dXytz4-11" value="[not fresh] Offers marked&amp;nbsp;&lt;div&gt;&lt;span style=&quot;background-color: light-dark(#ffffff, var(--ge-dark-color, #121212)); color: light-dark(rgb(0, 0, 0), rgb(255, 255, 255));&quot;&gt;as preliminary&lt;/span&gt;&lt;/div&gt;" style="edgeLabel;html=1;align=center;verticalAlign=middle;resizable=0;points=[];" parent="GAhhmPrOorjGGNaB6TWW-55" vertex="1" connectable="0">
          <mxGeometry x="-0.3437" relative="1" as="geometry">
            <mxPoint x="-24" y="20" as="offset" />
          </mxGeometry>
        </mxCell>
        <mxCell id="GAhhmPrOorjGGNaB6TWW-56" value="[not fresh] Fetch Offers (address)" style="html=1;verticalAlign=bottom;endArrow=block;curved=0;rounded=0;" parent="1" source="GAhhmPrOorjGGNaB6TWW-6" target="GAhhmPrOorjGGNaB6TWW-13" edge="1">
          <mxGeometry x="0.0006" width="80" relative="1" as="geometry">
            <mxPoint x="397.5" y="630" as="sourcePoint" />
            <mxPoint x="1015" y="630" as="targetPoint" />
            <Array as="points">
              <mxPoint x="570" y="360" />
            </Array>
            <mxPoint as="offset" />
          </mxGeometry>
        </mxCell>
        <mxCell id="GAhhmPrOorjGGNaB6TWW-57" value="Valid Offers" style="html=1;verticalAlign=bottom;endArrow=open;dashed=1;endSize=8;curved=0;rounded=0;" parent="1" source="GAhhmPrOorjGGNaB6TWW-13" target="GAhhmPrOorjGGNaB6TWW-6" edge="1">
          <mxGeometry relative="1" as="geometry">
            <mxPoint x="1015" y="670" as="sourcePoint" />
            <mxPoint x="397.5" y="670" as="targetPoint" />
            <Array as="points">
              <mxPoint x="560" y="400" />
            </Array>
          </mxGeometry>
        </mxCell>
        <mxCell id="GAhhmPrOorjGGNaB6TWW-60" value="Valid Offers" style="html=1;verticalAlign=bottom;endArrow=open;dashed=1;endSize=8;curved=0;rounded=0;" parent="1" source="GAhhmPrOorjGGNaB6TWW-6" target="GAhhmPrOorjGGNaB6TWW-2" edge="1">
          <mxGeometry relative="1" as="geometry">
            <mxPoint x="387.5" y="740" as="sourcePoint" />
            <mxPoint x="227.5" y="740" as="targetPoint" />
            <Array as="points">
              <mxPoint x="310" y="430" />
            </Array>
          </mxGeometry>
        </mxCell>
        <mxCell id="GAhhmPrOorjGGNaB6TWW-67" value="Cache Offers (address)" style="html=1;verticalAlign=bottom;endArrow=block;curved=0;rounded=0;" parent="1" source="GAhhmPrOorjGGNaB6TWW-6" target="GAhhmPrOorjGGNaB6TWW-11" edge="1">
          <mxGeometry width="80" relative="1" as="geometry">
            <mxPoint x="397.5" y="750" as="sourcePoint" />
            <mxPoint x="555" y="750" as="targetPoint" />
            <Array as="points">
              <mxPoint x="480" y="460" />
            </Array>
          </mxGeometry>
        </mxCell>
        <mxCell id="GAhhmPrOorjGGNaB6TWW-72" value="" style="html=1;verticalAlign=bottom;endArrow=open;dashed=1;endSize=8;curved=0;rounded=0;" parent="1" source="GAhhmPrOorjGGNaB6TWW-2" target="GAhhmPrOorjGGNaB6TWW-15" edge="1">
          <mxGeometry x="-0.0062" relative="1" as="geometry">
            <mxPoint x="200" y="490" as="sourcePoint" />
            <mxPoint x="120" y="490" as="targetPoint" />
            <Array as="points">
              <mxPoint x="160" y="640" />
            </Array>
            <mxPoint as="offset" />
          </mxGeometry>
        </mxCell>
        <mxCell id="n5BqmsEo6Z5Yi_dXytz4-12" value="Cache offers (address, sessionId)" style="html=1;verticalAlign=bottom;endArrow=block;curved=0;rounded=0;" parent="1" source="GAhhmPrOorjGGNaB6TWW-6" target="n5BqmsEo6Z5Yi_dXytz4-2" edge="1">
          <mxGeometry width="80" relative="1" as="geometry">
            <mxPoint x="400" y="500" as="sourcePoint" />
            <mxPoint x="557" y="500" as="targetPoint" />
            <Array as="points">
              <mxPoint x="482" y="500" />
            </Array>
          </mxGeometry>
        </mxCell>
      </root>
    </mxGraphModel>
  </diagram>
</mxfile>
